<svg width="2004" height="300" viewBox="0 0 2004 300" fill="none" xmlns="http://www.w3.org/2000/svg">
<rect y="28" width="120" height="244" fill="#362CBE"/>
<circle cx="245" cy="150" r="125" fill="#5A51CC"/>
<path d="M509.991 124C507.457 119.333 503.791 115.8 498.991 113.4C494.324 110.867 488.791 109.6 482.391 109.6C471.324 109.6 462.457 113.267 455.791 120.6C449.124 127.8 445.791 137.467 445.791 149.6C445.791 162.533 449.257 172.667 456.191 180C463.257 187.2 472.924 190.8 485.191 190.8C493.591 190.8 500.657 188.667 506.391 184.4C512.257 180.133 516.524 174 519.191 166H475.791V140.8H550.191V172.6C547.657 181.133 543.324 189.067 537.191 196.4C531.191 203.733 523.524 209.667 514.191 214.2C504.857 218.733 494.324 221 482.591 221C468.724 221 456.324 218 445.391 212C434.591 205.867 426.124 197.4 419.991 186.6C413.991 175.8 410.991 163.467 410.991 149.6C410.991 135.733 413.991 123.4 419.991 112.6C426.124 101.667 434.591 93.2 445.391 87.2C456.191 81.0667 468.524 78 482.391 78C499.191 78 513.324 82.0667 524.791 90.2C536.391 98.3333 544.057 109.6 547.791 124H509.991ZM645.117 79.6V163.6C645.117 172 647.184 178.467 651.317 183C655.451 187.533 661.517 189.8 669.517 189.8C677.517 189.8 683.651 187.533 687.917 183C692.184 178.467 694.317 172 694.317 163.6V79.6H728.517V163.4C728.517 175.933 725.851 186.533 720.517 195.2C715.184 203.867 707.984 210.4 698.917 214.8C689.984 219.2 679.984 221.4 668.917 221.4C657.851 221.4 647.917 219.267 639.117 215C630.451 210.6 623.584 204.067 618.517 195.4C613.451 186.6 610.917 175.933 610.917 163.4V79.6H645.117ZM845.716 221.4C835.449 221.4 826.249 219.733 818.116 216.4C809.982 213.067 803.449 208.133 798.516 201.6C793.716 195.067 791.182 187.2 790.916 178H827.316C827.849 183.2 829.649 187.2 832.716 190C835.782 192.667 839.782 194 844.716 194C849.782 194 853.782 192.867 856.716 190.6C859.649 188.2 861.116 184.933 861.116 180.8C861.116 177.333 859.916 174.467 857.516 172.2C855.249 169.933 852.382 168.067 848.916 166.6C845.582 165.133 840.782 163.467 834.516 161.6C825.449 158.8 818.049 156 812.316 153.2C806.582 150.4 801.649 146.267 797.516 140.8C793.382 135.333 791.316 128.2 791.316 119.4C791.316 106.333 796.049 96.1333 805.516 88.8C814.982 81.3333 827.316 77.6 842.516 77.6C857.982 77.6 870.449 81.3333 879.916 88.8C889.382 96.1333 894.449 106.4 895.116 119.6H858.116C857.849 115.067 856.182 111.533 853.116 109C850.049 106.333 846.116 105 841.316 105C837.182 105 833.849 106.133 831.316 108.4C828.782 110.533 827.516 113.667 827.516 117.8C827.516 122.333 829.649 125.867 833.916 128.4C838.182 130.933 844.849 133.667 853.916 136.6C862.982 139.667 870.316 142.6 875.916 145.4C881.649 148.2 886.582 152.267 890.716 157.6C894.849 162.933 896.916 169.8 896.916 178.2C896.916 186.2 894.849 193.467 890.716 200C886.716 206.533 880.849 211.733 873.116 215.6C865.382 219.467 856.249 221.4 845.716 221.4ZM1061.35 79.6V107H1024.15V220H989.945V107H952.745V79.6H1061.35ZM1208.29 195.2H1155.89L1147.49 220H1111.69L1162.49 79.6H1202.09L1252.89 220H1216.69L1208.29 195.2ZM1199.49 168.8L1182.09 117.4L1164.89 168.8H1199.49ZM1442.54 79.6L1392.74 220H1349.94L1300.14 79.6H1336.54L1371.34 185.6L1406.34 79.6H1442.54ZM1565.61 221.4C1552.41 221.4 1540.28 218.333 1529.21 212.2C1518.28 206.067 1509.55 197.533 1503.01 186.6C1496.61 175.533 1493.41 163.133 1493.41 149.4C1493.41 135.667 1496.61 123.333 1503.01 112.4C1509.55 101.467 1518.28 92.9333 1529.21 86.8C1540.28 80.6667 1552.41 77.6 1565.61 77.6C1578.81 77.6 1590.88 80.6667 1601.81 86.8C1612.88 92.9333 1621.55 101.467 1627.81 112.4C1634.21 123.333 1637.41 135.667 1637.41 149.4C1637.41 163.133 1634.21 175.533 1627.81 186.6C1621.41 197.533 1612.75 206.067 1601.81 212.2C1590.88 218.333 1578.81 221.4 1565.61 221.4ZM1565.61 190.2C1576.81 190.2 1585.75 186.467 1592.41 179C1599.21 171.533 1602.61 161.667 1602.61 149.4C1602.61 137 1599.21 127.133 1592.41 119.8C1585.75 112.333 1576.81 108.6 1565.61 108.6C1554.28 108.6 1545.21 112.267 1538.41 119.6C1531.75 126.933 1528.41 136.867 1528.41 149.4C1528.41 161.8 1531.75 171.733 1538.41 179.2C1545.21 186.533 1554.28 190.2 1565.61 190.2ZM1733.02 193.6H1777.82V220H1698.82V79.6H1733.02V193.6ZM1887.32 221.4C1877.05 221.4 1867.85 219.733 1859.72 216.4C1851.58 213.067 1845.05 208.133 1840.12 201.6C1835.32 195.067 1832.78 187.2 1832.52 178H1868.92C1869.45 183.2 1871.25 187.2 1874.32 190C1877.38 192.667 1881.38 194 1886.32 194C1891.38 194 1895.38 192.867 1898.32 190.6C1901.25 188.2 1902.72 184.933 1902.72 180.8C1902.72 177.333 1901.52 174.467 1899.12 172.2C1896.85 169.933 1893.98 168.067 1890.52 166.6C1887.18 165.133 1882.38 163.467 1876.12 161.6C1867.05 158.8 1859.65 156 1853.92 153.2C1848.18 150.4 1843.25 146.267 1839.12 140.8C1834.98 135.333 1832.92 128.2 1832.92 119.4C1832.92 106.333 1837.65 96.1333 1847.12 88.8C1856.58 81.3333 1868.92 77.6 1884.12 77.6C1899.58 77.6 1912.05 81.3333 1921.52 88.8C1930.98 96.1333 1936.05 106.4 1936.72 119.6H1899.72C1899.45 115.067 1897.78 111.533 1894.72 109C1891.65 106.333 1887.72 105 1882.92 105C1878.78 105 1875.45 106.133 1872.92 108.4C1870.38 110.533 1869.12 113.667 1869.12 117.8C1869.12 122.333 1871.25 125.867 1875.52 128.4C1879.78 130.933 1886.45 133.667 1895.52 136.6C1904.58 139.667 1911.92 142.6 1917.52 145.4C1923.25 148.2 1928.18 152.267 1932.32 157.6C1936.45 162.933 1938.52 169.8 1938.52 178.2C1938.52 186.2 1936.45 193.467 1932.32 200C1928.32 206.533 1922.45 211.733 1914.72 215.6C1906.98 219.467 1897.85 221.4 1887.32 221.4ZM1975.56 221.6C1969.56 221.6 1964.63 219.867 1960.76 216.4C1957.03 212.8 1955.16 208.4 1955.16 203.2C1955.16 197.867 1957.03 193.4 1960.76 189.8C1964.63 186.2 1969.56 184.4 1975.56 184.4C1981.43 184.4 1986.23 186.2 1989.96 189.8C1993.83 193.4 1995.76 197.867 1995.76 203.2C1995.76 208.4 1993.83 212.8 1989.96 216.4C1986.23 219.867 1981.43 221.6 1975.56 221.6Z" fill="#5A51CC"/>
</svg>
